Coordinates
version=1
nRows=17
nColumns=24
inDegrees=yes

Units are S.I. units (second, meters, Newtons, ...)
Angles are in degrees.

endheader
time	pelvis_tilt	pelvis_list	pelvis_rotation	pelvis_tx	pelvis_ty	pelvis_tz	hip_flexion_r	hip_adduction_r	hip_rotation_r	knee_angle_r	ankle_angle_r	subtalar_angle_r	mtp_angle_r	hip_flexion_l	hip_adduction_l	hip_rotation_l	knee_angle_l	ankle_angle_l	subtalar_angle_l	mtp_angle_l	lumbar_extension	lumbar_bending	lumbar_rotation
      4.32000000	    -12.66520679	      4.72482706	     -3.37103453	      2.41981355	     -0.00338069	     -0.44354162	     34.95276998	     -8.70844532	     -4.16315373	    -52.89200715	     -6.84603771	      8.67985834	     34.73893597	      9.17810621	      9.14040847	     -5.89417078	     -4.77997328	     -2.99079927	      6.29246637	      9.48833111	     11.43559013	     -6.67498446	     -2.83932150
      4.32500000	    -12.65070851	      4.57332908	     -3.17615522	      2.42529435	     -0.00348199	     -0.44397800	     35.22433646	     -8.48993193	     -4.27326947	    -51.83770445	     -6.53721664	      8.79651159	     34.36324961	      8.70446089	      9.05913199	     -5.63887569	     -4.60960472	     -2.78194236	      6.39595507	      9.39060347	     11.37079615	     -6.52489210	     -2.96502697
      4.33000000	    -12.73290172	      4.44828741	     -3.01959701	      2.43069392	     -0.00373995	     -0.44434302	     35.60389642	     -8.24667976	     -4.28787287	    -50.72611730	     -6.27667398	      8.94840839	     34.27533430	      8.37113464	      8.98826481	     -5.47542135	     -4.47644402	     -2.60580740	      6.46077015	      9.40946905	     11.41144404	     -6.38588314	     -3.06248090
      4.33500000	    -12.65920868	      4.26545731	     -2.80384121	      2.43615576	     -0.00379191	     -0.44473877	     35.73786645	     -8.00079202	     -4.42266519	    -49.53350583	     -6.00318390	      9.17121267	     33.97343780	      7.84858036	      8.86780512	     -5.22944069	     -4.33606183	     -2.37908944	      6.60742938	      9.32367838	     11.27556228	     -6.22129889	     -3.25356649
      4.34000000	    -12.70513863	      4.12247483	     -2.59616139	      2.44155244	     -0.00402419	     -0.44511322	     36.00387108	     -7.76909501	     -4.48875388	    -48.29894508	     -5.77350624	      9.49040039	     33.88266098	      7.48796975	      8.77603494	     -5.03210233	     -4.23084403	     -2.19087720	      6.73735405	      9.34777054	     11.27014207	     -6.08741896	     -3.40983466
      4.34500000	    -12.78770864	      4.00150869	     -2.46241530	      2.44690251	     -0.00433225	     -0.44533240	     36.31079644	     -7.48663805	     -4.43225051	    -47.01536115	     -5.59370871	      9.85498326	     33.84902289	      7.17640659	      8.68828832	     -4.89277312	     -4.12705655	     -2.02098182	      6.80507356	      9.38206488	     11.30970039	     -5.96237643	     -3.45994489
      4.35000000	    -12.71700280	      3.81812802	     -2.23644044	      2.45231872	     -0.00441490	     -0.44570980	     36.35949325	     -7.22410539	     -4.51324812	    -45.62946669	     -5.41356669	     10.30950871	     33.76418733	      6.68914113	      8.55210211	     -4.69571351	     -4.03048547	     -1.82717830	      7.01008449	      9.40804594	     11.17490397	     -5.79483658	     -3.65684026
      4.35500000	    -12.80512412	      3.69004117	     -2.11447657	      2.45764789	     -0.00473643	     -0.44589327	     36.61118015	     -6.90910456	     -4.40139050	    -44.22276385	     -5.31535290	     10.77967286	     33.73337425	      6.40135912	      8.44825210	     -4.58150436	     -3.95659910	     -1.66592623	      7.07692710	      9.45079854	     11.22059630	     -5.65937670	     -3.69027988
      4.36000000	    -12.72292421	      3.50014024	     -1.90621191	      2.46304094	     -0.00481163	     -0.44618719	     36.58550625	     -6.60481229	     -4.40763424	    -42.71307315	     -5.22428190	     11.31523704	     33.65251291	      5.91330336	      8.28987392	     -4.42142673	     -3.87337596	     -1.48526910	      7.31178764	      9.51753963	     11.07239963	     -5.48666864	     -3.86531163
      4.36500000	    -12.71443573	      3.32827449	     -1.75652193	      2.46838819	     -0.00499236	     -0.44637530	     36.63419524	     -6.25560532	     -4.29368881	    -41.16052476	     -5.21064237	     11.83353144	     33.55339357	      5.52350486	      8.13522880	     -4.30832092	     -3.81090528	     -1.31837228	      7.47941436	      9.59319369	     11.00793178	     -5.31754589	     -3.95371297
      4.37000000	    -12.82629605	      3.19480917	     -1.63331543	      2.47368578	     -0.00534825	     -0.44651829	     36.80958580	     -5.91048002	     -4.08945530	    -39.57823230	     -5.25916875	     12.35050361	     33.48677271	      5.28994941	      8.01497343	     -4.20838752	     -3.78323892	     -1.16908392	      7.54163253	      9.65389631	     11.07533814	     -5.17595870	     -3.98881303
      4.37500000	    -12.72477839	      2.96872925	     -1.44102298	      2.47905005	     -0.00537767	     -0.44674533	     36.65172491	     -5.53124380	     -3.98259558	    -37.88262678	     -5.35990076	     12.82092995	     33.27599319	      4.80499438	      7.79777340	     -4.06901886	     -3.73615325	     -0.99153031	      7.80698717	      9.76701257	     10.90243061	     -4.96496311	     -4.14971763
      4.38000000	    -12.71965007	      2.77965131	     -1.30219528	      2.48438660	     -0.00556092	     -0.44688694	     36.59638966	     -5.13767082	     -3.74896511	    -36.16739878	     -5.50781957	     13.23405512	     32.99233859	      4.44454762	      7.60988454	     -3.97596507	     -3.71347919	     -0.82751341	      7.98415604	      9.86613679	     10.84057418	     -4.77608742	     -4.22913904
      4.38500000	    -12.73819775	      2.59045152	     -1.14755800	      2.48971127	     -0.00577471	     -0.44705715	     36.53545531	     -4.75445378	     -3.49121906	    -34.41543938	     -5.70704284	     13.56629602	     32.64320431	      4.12568722	      7.41952270	     -3.85867275	     -3.71825601	     -0.66046467	      8.15186977	      9.96382868	     10.80089254	     -4.58736834	     -4.31979022
      4.39000000	    -12.75235038	      2.40103776	     -0.99453041	      2.49505224	     -0.00599025	     -0.44723388	     36.43783181	     -4.37302947	     -3.19099945	    -32.63006824	     -5.93386226	     13.79342103	     32.19454933	      3.81000230	      7.22572655	     -3.74872520	     -3.73674593	     -0.49406872	      8.32738896	     10.06105212	     10.75898996	     -4.39546663	     -4.41228036
      4.39500000	    -12.77760942	      2.21469942	     -0.83653938	      2.50039128	     -0.00622925	     -0.44742804	     36.32759707	     -4.00462838	     -2.85652119	    -30.82490724	     -6.18945806	     13.89425956	     31.65617750	      3.51971859	      7.03201499	     -3.63436570	     -3.77738351	     -0.32499656	      8.50626889	     10.16094874	     10.72780532	     -4.20600907	     -4.50747184
      4.40000000	    -12.77289333	      2.02963378	     -0.68835225	      2.50582818	     -0.00644108	     -0.44763053	     36.15400414	     -3.64620129	     -2.49568753	    -29.01008889	     -6.41122286	     13.89529575	     30.91100555	      3.18405594	      6.83620194	     -3.55651762	     -3.79822405	     -0.17222407	      8.74133938	     10.26544190	     10.68221927	     -4.01360901	     -4.60680632
